<svg width="20" height="20" viewBox="0 0 20 20" fill="none" xmlns="http://www.w3.org/2000/svg">
<path d="M1 3.5C1 3.22386 1.22386 3 1.5 3H18.5C18.7761 3 19 3.22386 19 3.5V7C19 7.27614 18.7761 7.5 18.5 7.5H1.5C1.22386 7.5 1 7.27614 1 7V3.5Z" fill="#FF9933"/>
<path d="M1 8C1 7.72386 1.22386 7.5 1.5 7.5H18.5C18.7761 7.5 19 7.72386 19 8V11.5C19 11.7761 18.7761 12 18.5 12H1.5C1.22386 12 1 11.7761 1 11.5V8Z" fill="white"/>
<path d="M1 12.5C1 12.2239 1.22386 12 1.5 12H18.5C18.7761 12 19 12.2239 19 12.5V16C19 16.2761 18.7761 16.5 18.5 16.5H1.5C1.22386 16.5 1 16.2761 1 16V12.5Z" fill="#128807"/>
<path d="M9.99995 11.5497C10.9941 11.5497 11.8 10.7438 11.8 9.74971C11.8 8.75559 10.9941 7.94971 9.99995 7.94971C9.00584 7.94971 8.19995 8.75559 8.19995 9.74971C8.19995 10.7438 9.00584 11.5497 9.99995 11.5497Z" fill="#000088"/>
<path d="M10 11.3248C10.8699 11.3248 11.575 10.6197 11.575 9.7498C11.575 8.87996 10.8699 8.1748 10 8.1748C9.1302 8.1748 8.42505 8.87996 8.42505 9.7498C8.42505 10.6197 9.1302 11.3248 10 11.3248Z" fill="white"/>
<path d="M10.0001 10.0646C10.174 10.0646 10.3151 9.92354 10.3151 9.74957C10.3151 9.5756 10.174 9.43457 10.0001 9.43457C9.82609 9.43457 9.68506 9.5756 9.68506 9.74957C9.68506 9.92354 9.82609 10.0646 10.0001 10.0646Z" fill="#000088"/>
<path d="M11.5509 10.0369C11.5952 10.0427 11.6359 10.0115 11.6417 9.96717C11.6476 9.92282 11.6164 9.88213 11.572 9.8763C11.5277 9.87046 11.487 9.90168 11.4811 9.94603C11.4753 9.99038 11.5065 10.0311 11.5509 10.0369Z" fill="#000088"/>
<path d="M10 11.3252L10.054 10.3802L10 9.93018L9.94604 10.3802L10 11.3252Z" fill="#000088"/>
<path d="M11.4242 10.4282C11.4655 10.4453 11.5129 10.4257 11.53 10.3844C11.5472 10.3431 11.5275 10.2957 11.4862 10.2786C11.4449 10.2614 11.3975 10.2811 11.3804 10.3224C11.3633 10.3637 11.3829 10.4111 11.4242 10.4282Z" fill="#000088"/>
<path d="M9.59272 11.2716L9.88946 10.3728L9.95377 9.92413L9.78514 10.3448L9.59272 11.2716Z" fill="#000088"/>
<path d="M11.2 10.7735C11.2355 10.8008 11.2864 10.7941 11.3136 10.7586C11.3408 10.7231 11.3341 10.6722 11.2986 10.645C11.2631 10.6178 11.2123 10.6245 11.1851 10.66C11.1578 10.6955 11.1645 10.7463 11.2 10.7735Z" fill="#000088"/>
<path d="M9.21279 11.114L9.73206 10.3226L9.91029 9.90591L9.63853 10.2686L9.21279 11.114Z" fill="#000088"/>
<path d="M10.8942 11.0491C10.9214 11.0846 10.9723 11.0913 11.0077 11.0641C11.0432 11.0368 11.0499 10.986 11.0227 10.9505C10.9955 10.915 10.9446 10.9083 10.9091 10.9355C10.8736 10.9628 10.8669 11.0136 10.8942 11.0491Z" fill="#000088"/>
<path d="M8.88649 10.864L9.59289 10.2339L9.8729 9.87754L9.51652 10.1576L8.88649 10.864Z" fill="#000088"/>
<path d="M10.5273 11.2364C10.5444 11.2778 10.5918 11.2974 10.6332 11.2803C10.6745 11.2632 10.6941 11.2158 10.677 11.1744C10.6599 11.1331 10.6125 11.1135 10.5712 11.1306C10.5298 11.1477 10.5102 11.1951 10.5273 11.2364Z" fill="#000088"/>
<path d="M8.63579 10.5372L9.48118 10.1115L9.84389 9.83973L9.42718 10.018L8.63579 10.5372Z" fill="#000088"/>
<path d="M10.1249 11.3222C10.1307 11.3665 10.1714 11.3977 10.2157 11.3919C10.2601 11.3861 10.2913 11.3454 10.2855 11.301C10.2796 11.2567 10.2389 11.2254 10.1946 11.2313C10.1502 11.2371 10.119 11.2778 10.1249 11.3222Z" fill="#000088"/>
<path d="M8.47877 10.1574L9.40554 9.96493L9.82623 9.7963L9.37759 9.86061L8.47877 10.1574Z" fill="#000088"/>
<path d="M9.71358 11.3009C9.70774 11.3452 9.73896 11.3859 9.78331 11.3917C9.82767 11.3976 9.86835 11.3664 9.87419 11.322C9.88003 11.2777 9.84881 11.237 9.80446 11.2311C9.76011 11.2253 9.71942 11.2565 9.71358 11.3009Z" fill="#000088"/>
<path d="M8.42507 9.7498L9.37007 9.8038L9.82007 9.7498L9.37007 9.6958L8.42507 9.7498Z" fill="#000088"/>
<path d="M9.32202 11.174C9.3049 11.2153 9.32453 11.2627 9.36586 11.2798C9.40719 11.2969 9.45457 11.2773 9.47169 11.236C9.48881 11.1946 9.46918 11.1473 9.42785 11.1301C9.38652 11.113 9.33914 11.1326 9.32202 11.174Z" fill="#000088"/>
<path d="M8.47865 9.34247L9.37747 9.63922L9.82611 9.70353L9.40542 9.5349L8.47865 9.34247Z" fill="#000088"/>
<path d="M8.97646 10.9495C8.94923 10.985 8.95593 11.0359 8.99142 11.0631C9.02691 11.0903 9.07775 11.0836 9.10499 11.0481C9.13222 11.0127 9.12553 10.9618 9.09004 10.9346C9.05454 10.9073 9.0037 10.914 8.97646 10.9495Z" fill="#000088"/>
<path d="M8.63599 8.96206L9.42738 9.48132L9.84409 9.65956L9.48138 9.38779L8.63599 8.96206Z" fill="#000088"/>
<path d="M8.70089 10.6439C8.6654 10.6712 8.6587 10.722 8.68594 10.7575C8.71317 10.793 8.76402 10.7997 8.79951 10.7725C8.835 10.7452 8.84169 10.6944 8.81446 10.6589C8.78723 10.6234 8.73638 10.6167 8.70089 10.6439Z" fill="#000088"/>
<path d="M8.88629 8.63575L9.51632 9.34215L9.8727 9.62217L9.59269 9.26579L8.88629 8.63575Z" fill="#000088"/>
<path d="M8.51381 10.2773C8.47248 10.2944 8.45285 10.3418 8.46997 10.3832C8.48709 10.4245 8.53447 10.4441 8.5758 10.427C8.61713 10.4099 8.63676 10.3625 8.61964 10.3212C8.60252 10.2798 8.55514 10.2602 8.51381 10.2773Z" fill="#000088"/>
<path d="M9.21252 8.38579L9.63826 9.23118L9.91002 9.59389L9.73179 9.17718L9.21252 8.38579Z" fill="#000088"/>
<path d="M8.42784 9.87437C8.38349 9.88021 8.35227 9.9209 8.35811 9.96525C8.36395 10.0096 8.40464 10.0408 8.44899 10.035C8.49334 10.0291 8.52456 9.98846 8.51872 9.94411C8.51289 9.89975 8.4722 9.86853 8.42784 9.87437Z" fill="#000088"/>
<path d="M9.59265 8.22852L9.78507 9.1553L9.9537 9.57599L9.88939 9.12735L9.59265 8.22852Z" fill="#000088"/>
<path d="M8.44938 9.4626C8.40503 9.45676 8.36434 9.48798 8.3585 9.53234C8.35266 9.57669 8.38389 9.61738 8.42824 9.62322C8.47259 9.62906 8.51328 9.59783 8.51912 9.55348C8.52496 9.50913 8.49374 9.46844 8.44938 9.4626Z" fill="#000088"/>
<path d="M10.0002 8.17385L9.9462 9.11885L10.0002 9.56885L10.0542 9.11885L10.0002 8.17385Z" fill="#000088"/>
<path d="M8.57603 9.07129C8.5347 9.05417 8.48732 9.07379 8.4702 9.11512C8.45308 9.15645 8.4727 9.20384 8.51403 9.22096C8.55536 9.23808 8.60275 9.21845 8.61986 9.17712C8.63698 9.13579 8.61736 9.08841 8.57603 9.07129Z" fill="#000088"/>
<path d="M10.4075 8.22791L10.1108 9.12674L10.0465 9.57538L10.2151 9.15469L10.4075 8.22791Z" fill="#000088"/>
<path d="M8.80023 8.72598C8.76474 8.69874 8.71389 8.70544 8.68666 8.74093C8.65942 8.77642 8.66612 8.82727 8.70161 8.8545C8.7371 8.88173 8.78795 8.87504 8.81518 8.83955C8.84241 8.80406 8.83572 8.75321 8.80023 8.72598Z" fill="#000088"/>
<path d="M10.7875 8.3855L10.2682 9.17689L10.09 9.59361L10.3617 9.23089L10.7875 8.3855Z" fill="#000088"/>
<path d="M9.10607 8.4504C9.07884 8.41491 9.02799 8.40822 8.9925 8.43545C8.95701 8.46268 8.95031 8.51353 8.97755 8.54902C9.00478 8.58451 9.05563 8.5912 9.09112 8.56397C9.12661 8.53674 9.1333 8.48589 9.10607 8.4504Z" fill="#000088"/>
<path d="M11.1138 8.63556L10.4074 9.26559L10.1273 9.62197L10.4837 9.34196L11.1138 8.63556Z" fill="#000088"/>
<path d="M9.47243 8.26307C9.45531 8.22174 9.40793 8.20212 9.3666 8.21924C9.32527 8.23636 9.30564 8.28374 9.32276 8.32507C9.33988 8.3664 9.38726 8.38602 9.42859 8.3689C9.46992 8.35179 9.48955 8.3044 9.47243 8.26307Z" fill="#000088"/>
<path d="M11.364 8.96228L10.5186 9.38801L10.1559 9.65978L10.5726 9.48154L11.364 8.96228Z" fill="#000088"/>
<path d="M9.87514 8.17736C9.8693 8.133 9.82861 8.10178 9.78426 8.10762C9.73991 8.11346 9.70869 8.15415 9.71453 8.1985C9.72036 8.24285 9.76105 8.27408 9.8054 8.26824C9.84976 8.2624 9.88098 8.22171 9.87514 8.17736Z" fill="#000088"/>
<path d="M11.5212 9.34216L10.5945 9.53458L10.1738 9.70321L10.6224 9.6389L11.5212 9.34216Z" fill="#000088"/>
<path d="M10.2864 8.19865C10.2923 8.1543 10.261 8.11361 10.2167 8.10777C10.1723 8.10193 10.1316 8.13315 10.1258 8.17751C10.12 8.22186 10.1512 8.26255 10.1955 8.26839C10.2399 8.27422 10.2806 8.243 10.2864 8.19865Z" fill="#000088"/>
<path d="M11.5749 9.74971L10.6299 9.69571L10.1799 9.74971L10.6299 9.80371L11.5749 9.74971Z" fill="#000088"/>
<path d="M10.678 8.32554C10.6951 8.28421 10.6755 8.23683 10.6341 8.21971C10.5928 8.20259 10.5454 8.22221 10.5283 8.26354C10.5112 8.30487 10.5308 8.35226 10.5721 8.36938C10.6135 8.3865 10.6609 8.36687 10.678 8.32554Z" fill="#000088"/>
<path d="M11.5214 10.157L10.6225 9.86029L10.1739 9.79598L10.5946 9.96461L11.5214 10.157Z" fill="#000088"/>
<path d="M11.0235 8.54998C11.0508 8.51449 11.0441 8.46364 11.0086 8.43641C10.9731 8.40918 10.9222 8.41587 10.895 8.45136C10.8678 8.48685 10.8745 8.5377 10.91 8.56493C10.9455 8.59217 10.9963 8.58547 11.0235 8.54998Z" fill="#000088"/>
<path d="M11.364 10.5375L10.5726 10.0182L10.1559 9.83995L10.5186 10.1117L11.364 10.5375Z" fill="#000088"/>
<path d="M11.2994 8.85607C11.3348 8.82884 11.3415 8.77799 11.3143 8.7425C11.2871 8.70701 11.2362 8.70031 11.2007 8.72755C11.1652 8.75478 11.1586 8.80563 11.1858 8.84112C11.213 8.87661 11.2639 8.8833 11.2994 8.85607Z" fill="#000088"/>
<path d="M11.114 10.8638L10.4839 10.1574L10.1275 9.87734L10.4076 10.2337L11.114 10.8638Z" fill="#000088"/>
<path d="M11.4864 9.22219C11.5278 9.20507 11.5474 9.15768 11.5303 9.11636C11.5132 9.07503 11.4658 9.0554 11.4244 9.07252C11.3831 9.08964 11.3635 9.13702 11.3806 9.17835C11.3977 9.21968 11.4451 9.23931 11.4864 9.22219Z" fill="#000088"/>
<path d="M10.7875 11.1137L10.3617 10.2683L10.09 9.90562L10.2682 10.3223L10.7875 11.1137Z" fill="#000088"/>
<path d="M11.5724 9.62514C11.6168 9.6193 11.648 9.57861 11.6421 9.53426C11.6363 9.48991 11.5956 9.45869 11.5513 9.46453C11.5069 9.47036 11.4757 9.51105 11.4815 9.5554C11.4874 9.59976 11.528 9.63098 11.5724 9.62514Z" fill="#000088"/>
<path d="M10.4076 11.271L10.2152 10.3442L10.0465 9.92352L10.1109 10.3722L10.4076 11.271Z" fill="#000088"/>
</svg>
